<svg xmlns="http://www.w3.org/2000/svg" viewBox="0 0 60 40" width="60" height="40">
  <!-- Simplified: Union Jack canton (red/white/blue) + horizontal stripes -->
  <rect fill="#012169" width="24" height="16"/>
  <path fill="#fff" d="M0 2h24v2H0V2zm0 6h24v2H0V8zm0 6h24v2H0v-2z"/>
  <path fill="#C8102E" d="M2 0h2v16H2V0zm6 0h2v16H8V0zm14 0h2v16h-2V0zm-6 0h2v16h-2V0z"/>
  <rect x="24" y="0" width="36" height="5" fill="#C8102E"/>
  <rect x="24" y="5" width="36" height="5" fill="#fff"/>
  <rect x="24" y="10" width="36" height="5" fill="#012169"/>
  <rect x="24" y="15" width="36" height="5" fill="#C8102E"/>
  <rect x="24" y="20" width="36" height="5" fill="#fff"/>
  <rect x="24" y="25" width="36" height="5" fill="#012169"/>
  <rect x="24" y="30" width="36" height="5" fill="#C8102E"/>
  <rect x="24" y="35" width="36" height="5" fill="#fff"/>
</svg>
